<!DOCTYPE svg PUBLIC "-//W3C//DTD SVG 1.1//EN" "http://www.w3.org/Graphics/SVG/1.1/DTD/svg11.dtd">
<!-- Uploaded to: SVG Repo, www.svgrepo.com, Transformed by: SVG Repo Mixer Tools -->
<svg width="800px" height="800px" viewBox="0 0 24.00 24.00" fill="none" xmlns="http://www.w3.org/2000/svg">
<g id="SVGRepo_bgCarrier" stroke-width="0"/>
<g id="SVGRepo_tracerCarrier" stroke-linecap="round" stroke-linejoin="round"/>
<g id="SVGRepo_iconCarrier"> <path d="M11 16.15V18.85C11 21.1 10.1 22 7.85 22H5.15C2.9 22 2 21.1 2 18.85V16.15C2 13.9 2.9 13 5.15 13H7.85C10.1 13 11 13.9 11 16.15Z" stroke="#001eff" stroke-width="0.8399999999999999" stroke-linecap="round" stroke-linejoin="round"/> <path opacity="0.4" d="M22 15C22 18.87 18.87 22 15 22L16.05 20.25" stroke="#001eff" stroke-width="0.8399999999999999" stroke-linecap="round" stroke-linejoin="round"/> <path opacity="0.4" d="M2 9C2 5.13 5.13 2 9 2L7.95 3.75" stroke="#001eff" stroke-width="0.8399999999999999" stroke-linecap="round" stroke-linejoin="round"/> <path d="M17.5 11C19.9853 11 22 8.98528 22 6.5C22 4.01472 19.9853 2 17.5 2C15.0147 2 13 4.01472 13 6.5C13 8.98528 15.0147 11 17.5 11Z" stroke="#001eff" stroke-width="0.8399999999999999" stroke-linecap="round" stroke-linejoin="round"/> </g>
</svg>